<svg xmlns="http://www.w3.org/2000/svg" version="1.1"
  xmlns:xlink="http://www.w3.org/1999/xlink"
  xmlns:svgjs="http://svgjs.com/svgjs" width="24" height="24" x="0" y="0" viewBox="0 0 512 512" style="enable-background:new 0 0 512 512" xml:space="preserve" class="">
  <g>
    <g>
      <g>
        <path d="M383.324,0.019c-65.264,0-119.331,48.842-127.581,111.892h-26.352c-13.451,0-26.095,5.238-35.604,14.748L14.761,305.686
			c-19.678,19.677-19.683,51.525-0.001,71.206l120.366,120.367c19.631,19.63,51.574,19.631,71.207,0l179.028-179.027
			c9.51-9.511,14.747-22.155,14.747-35.603v-26.353C463.158,248.026,512,193.959,512,128.694
			C512,57.743,454.276,0.019,383.324,0.019z M366.538,282.627c0,4.482-1.747,8.697-4.917,11.868L182.595,473.522
			c-6.545,6.545-17.191,6.545-23.736,0L38.495,353.156c-6.56-6.561-6.56-17.175,0-23.736l179.028-179.028
			c3.169-3.17,7.385-4.915,11.867-4.915h26.346c2.185,16.92,7.674,33.072,16.258,47.795c-3.873,5.471-6.157,12.143-6.157,19.341
			c0,18.509,15.058,33.568,33.568,33.568c18.509,0,33.568-15.058,33.568-33.568c0-17.386-13.287-31.725-30.24-33.402
			c-6.527-10.36-10.921-21.751-13.039-33.733h60.061c9.255,0,16.784,7.529,16.784,16.784V282.627z M400.108,222.288v-60.028
			c0-27.764-22.588-50.351-50.351-50.351h-60.028c7.953-44.461,46.88-78.324,93.595-78.324c52.443,0,95.108,42.665,95.108,95.108
			C478.432,175.407,444.569,214.334,400.108,222.288z" fill="#000000" data-original="#000000" class=""></path>
      </g>
    </g>
    <g>
    </g>
    <g>
    </g>
    <g>
    </g>
    <g>
    </g>
    <g>
    </g>
    <g>
    </g>
    <g>
    </g>
    <g>
    </g>
    <g>
    </g>
    <g>
    </g>
    <g>
    </g>
    <g>
    </g>
    <g>
    </g>
    <g>
    </g>
    <g>
    </g>
  </g>
</svg>