<svg xmlns="http://www.w3.org/2000/svg" version="1.1"
  xmlns:xlink="http://www.w3.org/1999/xlink"
  xmlns:svgjs="http://svgjs.com/svgjs" width="24" height="24" x="0" y="0" viewBox="0 0 512.001 512.001" style="enable-background:new 0 0 512 512" xml:space="preserve" class="">
  <g>
    <path style="" d="M349.737,111.892H229.366c-13.255,0-26.235,5.376-35.6,14.752L14.739,305.671
	c-19.625,19.63-19.625,51.57,0,71.2L135.11,497.243c19.673,19.684,51.54,19.671,71.2,0L385.349,318.21
	c9.506-9.518,14.741-22.16,14.741-35.6V162.243C400.088,134.479,377.503,111.892,349.737,111.892z M299.385,246.162
	c-18.51,0-33.568-15.057-33.568-33.568s15.057-33.568,33.568-33.568c18.51,0,33.568,15.057,33.568,33.568
	S317.896,246.162,299.385,246.162z" fill="#f1f1f1" data-original="#f37b2a" class=""></path>
    <path style="" d="M385.325,126.656l-62.214,62.214c6.078,6.078,9.842,14.47,9.842,23.726
	c0,18.51-15.057,33.568-33.568,33.568c-9.255,0-17.646-3.764-23.726-9.842L74.924,437.056l60.186,60.186
	c19.673,19.684,51.54,19.671,71.2,0l179.038-179.033c9.506-9.518,14.741-22.16,14.741-35.6V162.243
	C400.088,148.361,394.442,135.773,385.325,126.656z" fill="#d3d3d3" data-original="#e56722" class=""></path>
    <path style="" d="M511.98,128.676c0,65.233-48.897,119.165-111.892,127.445v-33.903
	c44.421-7.944,78.324-46.883,78.324-93.542c0-52.477-42.632-95.108-95.108-95.108c-46.77,0-85.708,33.791-93.542,78.324
	c-1.007,5.483-1.566,11.077-1.566,16.784c0,18.127,4.922,35.47,14.546,50.575c7.384,11.637,17.454,22.043,29.986,30.435
	c0.224,0.895,0.224,1.902,0.224,2.909c0,11.525-5.93,21.819-14.771,27.861c-20.028-12.756-35.581-28.868-46.098-47.33
	c-11.413-19.47-17.456-41.512-17.456-64.45c0-5.706,0.336-11.301,1.119-16.784C264.026,48.785,318.068,0,383.302,0
	C454.245,0,511.98,57.736,511.98,128.676z" fill="#c9d2d9" data-original="#c9d2d9" class=""></path>
    <path style="" d="M478.413,128.676c0,46.708-33.875,85.573-78.324,93.534v33.918
	c63.03-8.267,111.892-62.2,111.892-127.452c0-35.476-14.432-67.644-37.731-90.945l-23.726,23.726
	C467.746,78.678,478.413,102.455,478.413,128.676z" fill="#b7c4cc" data-original="#b7c4cc" class=""></path>
    <g>
    </g>
    <g>
    </g>
    <g>
    </g>
    <g>
    </g>
    <g>
    </g>
    <g>
    </g>
    <g>
    </g>
    <g>
    </g>
    <g>
    </g>
    <g>
    </g>
    <g>
    </g>
    <g>
    </g>
    <g>
    </g>
    <g>
    </g>
    <g>
    </g>
  </g>
</svg>